<svg width="204" height="154" viewBox="0 0 204 154" fill="none" xmlns="http://www.w3.org/2000/svg">
<g opacity="0.8">
<circle cx="4.05405" cy="5.27024" r="4.05405" fill="#2CCCFF"/>
<circle cx="4.05405" cy="101.486" r="4.05405" fill="#2CCCFF"/>
<circle cx="4.05405" cy="53.3783" r="4.05405" fill="#2CCCFF"/>
<circle cx="4.05405" cy="149.595" r="4.05405" fill="#2CCCFF"/>
<circle cx="148.378" cy="5.27024" r="4.05405" fill="#2CCCFF"/>
<circle cx="148.378" cy="101.486" r="4.05405" fill="#2CCCFF"/>
<circle cx="148.378" cy="53.3783" r="4.05405" fill="#2CCCFF"/>
<circle cx="148.378" cy="149.595" r="4.05405" fill="#2CCCFF"/>
<circle cx="52.1622" cy="5.27024" r="4.05405" fill="#2CCCFF"/>
<circle cx="52.1622" cy="101.486" r="4.05405" fill="#2CCCFF"/>
<circle cx="52.1622" cy="53.3783" r="4.05405" fill="#2CCCFF"/>
<circle cx="52.1622" cy="149.595" r="4.05405" fill="#2CCCFF"/>
<circle cx="196.486" cy="5.27024" r="4.05405" fill="#2CCCFF"/>
<circle cx="196.486" cy="101.486" r="4.05405" fill="#2CCCFF"/>
<circle cx="196.486" cy="53.3783" r="4.05405" fill="#2CCCFF"/>
<circle cx="196.486" cy="149.595" r="4.05405" fill="#2CCCFF"/>
<circle cx="100.27" cy="5.27024" r="4.05405" fill="#2CCCFF"/>
<circle cx="100.27" cy="101.486" r="4.05405" fill="#2CCCFF"/>
<circle cx="100.27" cy="53.3783" r="4.05405" fill="#2CCCFF"/>
<circle cx="100.27" cy="149.595" r="4.05405" fill="#2CCCFF"/>
</g>
</svg>
