<svg width="42" height="30" viewBox="0 0 42 30" fill="none" xmlns="http://www.w3.org/2000/svg">
<path d="M8.59429 1.68C7.52229 2.128 6.69029 2.8 6.09829 3.696C5.52229 4.592 5.23429 5.672 5.23429 6.936C5.23429 7.528 5.29029 7.944 5.40229 8.184C5.51429 8.408 5.57029 8.536 5.57029 8.568C4.70629 8.568 4.05829 8.392 3.62629 8.04C3.21029 7.672 3.00229 7.072 3.00229 6.24C3.00229 5.216 3.41829 4.224 4.25029 3.264C5.09829 2.288 6.17829 1.504 7.49029 0.912001C8.80229 0.304 10.1143 0 11.4263 0C11.6503 0 11.9703 0.0160005 12.3863 0.048001L10.8503 7.2H14.3783L15.9143 0.048001H19.3703L15.5543 18H12.0983L14.0183 8.976H10.4903L8.57029 18H5.11429L8.59429 1.68Z" fill="#FF2C6B"/>
<path d="M29.9897 13.512C28.7737 13.912 27.8297 14.576 27.1577 15.504C26.5017 16.416 26.1737 17.552 26.1737 18.912C26.1737 19.52 26.2297 19.936 26.3417 20.16C26.4537 20.384 26.5097 20.52 26.5097 20.568C24.7977 20.568 23.9417 19.84 23.9417 18.384C23.9417 17.392 24.3177 16.4 25.0697 15.408C25.8377 14.4 26.8137 13.584 27.9977 12.96C29.1977 12.32 30.3897 12 31.5737 12C32.1657 12 32.7737 12.112 33.3977 12.336L32.8457 24.984L38.1257 12.336H41.5817L39.0617 30H35.6057L37.1417 19.224L32.6297 30H29.3417L29.8217 19.176L25.8137 30H23.8937L29.9897 13.512Z" fill="#FF2C6B"/>
<path d="M0 24C0 23.5266 0.383756 23.1429 0.857143 23.1429H18C18.4734 23.1429 18.8571 23.5266 18.8571 24C18.8571 24.4734 18.4734 24.8571 18 24.8571H0.857143C0.383756 24.8571 0 24.4734 0 24Z" fill="#FF2C6B"/>
<path fill-rule="evenodd" clip-rule="evenodd" d="M26.2857 3C24.8656 3 23.7143 4.15127 23.7143 5.57143C23.7143 6.99159 24.8656 8.14286 26.2857 8.14286C26.6259 8.14286 26.9506 8.07682 27.2477 7.95686C26.3424 7.76576 25.6628 6.96224 25.6628 6C25.6628 4.89543 26.5583 4 27.6628 4C27.9349 4 28.1943 4.05432 28.4307 4.15271C27.9703 3.45805 27.1815 3 26.2857 3Z" fill="#FF2C6B"/>
</svg>
