<svg width="10" height="10" viewBox="0 0 10 10" fill="none" xmlns="http://www.w3.org/2000/svg">
<path d="M10 5L7.89597 7.10872L6.71978 5.93721L7.64761 5L6.71978 4.08154L7.89597 2.90534L10 5ZM5 0L7.09466 2.10403L5.91846 3.28022L5 2.35239L4.06279 3.28022L2.89128 2.10403L5 0ZM5 10L2.90534 7.89597L4.08154 6.71978L5 7.64761L5.93721 6.71978L7.10872 7.89597L5 10ZM0 5L2.10403 2.89128L3.28022 4.06279L2.35239 5L3.28022 5.91846L2.10403 7.09466L0 5ZM5 4.06279C5.24856 4.06279 5.48694 4.16153 5.66271 4.33729C5.83847 4.51305 5.93721 4.75144 5.93721 5C5.93721 5.24856 5.83847 5.48694 5.66271 5.66271C5.48694 5.83847 5.24856 5.93721 5 5.93721C4.75144 5.93721 4.51305 5.83847 4.33729 5.66271C4.16153 5.48694 4.06279 5.24856 4.06279 5C4.06279 4.75144 4.16153 4.51305 4.33729 4.33729C4.51305 4.16153 4.75144 4.06279 5 4.06279Z" fill="#FF2C9E"/>
</svg>
