<svg width="159" height="157" viewBox="0 0 159 157" fill="none" xmlns="http://www.w3.org/2000/svg">
<circle cx="-0.567567" cy="4.43243" r="4.43243" fill="white"/>
<circle cx="-0.567567" cy="66.4865" r="4.43243" fill="white"/>
<circle cx="-0.567567" cy="128.541" r="4.43243" fill="white"/>
<circle cx="-0.567567" cy="35.4595" r="4.43243" fill="white"/>
<circle cx="-0.567567" cy="97.5135" r="4.43243" fill="white"/>
<circle cx="-0.567567" cy="159.568" r="4.43243" fill="white"/>
<circle cx="92.5135" cy="4.43243" r="4.43243" fill="white"/>
<circle cx="92.5135" cy="66.4865" r="4.43243" fill="white"/>
<circle cx="92.5135" cy="128.541" r="4.43243" fill="white"/>
<circle cx="92.5135" cy="35.4595" r="4.43243" fill="white"/>
<circle cx="92.5135" cy="97.5135" r="4.43243" fill="white"/>
<circle cx="92.5135" cy="159.568" r="4.43243" fill="white"/>
<circle cx="30.4595" cy="4.43243" r="4.43243" fill="white"/>
<circle cx="30.4595" cy="66.4865" r="4.43243" fill="white"/>
<circle cx="30.4595" cy="128.541" r="4.43243" fill="white"/>
<circle cx="30.4595" cy="35.4595" r="4.43243" fill="white"/>
<circle cx="30.4595" cy="97.5135" r="4.43243" fill="white"/>
<circle cx="30.4595" cy="159.568" r="4.43243" fill="white"/>
<circle cx="123.541" cy="4.43243" r="4.43243" fill="white"/>
<circle cx="123.541" cy="66.4865" r="4.43243" fill="white"/>
<circle cx="123.541" cy="128.541" r="4.43243" fill="white"/>
<circle cx="123.541" cy="35.4595" r="4.43243" fill="white"/>
<circle cx="123.541" cy="97.5135" r="4.43243" fill="white"/>
<circle cx="123.541" cy="159.568" r="4.43243" fill="white"/>
<circle cx="61.4865" cy="4.43243" r="4.43243" fill="white"/>
<circle cx="61.4865" cy="66.4865" r="4.43243" fill="white"/>
<circle cx="61.4865" cy="128.541" r="4.43243" fill="white"/>
<circle cx="61.4865" cy="35.4595" r="4.43243" fill="white"/>
<circle cx="61.4865" cy="97.5135" r="4.43243" fill="white"/>
<circle cx="61.4865" cy="159.568" r="4.43243" fill="white"/>
<circle cx="154.568" cy="4.43243" r="4.43243" fill="white"/>
<circle cx="154.568" cy="66.4865" r="4.43243" fill="white"/>
<circle cx="154.568" cy="128.541" r="4.43243" fill="white"/>
<circle cx="154.568" cy="35.4595" r="4.43243" fill="white"/>
<circle cx="154.568" cy="97.5135" r="4.43243" fill="white"/>
<circle cx="154.568" cy="159.568" r="4.43243" fill="white"/>
</svg>
